subject_04
version=1
nRows=388
nColumns=3
inDegrees=yes
endheader
time	r_shoulder_elev	r_elbow_flex
27.6400	18.842916	84.759059
27.6500	18.842916	85.728348
27.6600	18.842916	86.681769
27.6700	18.842916	87.566075
27.6800	18.842916	88.371220
27.6900	18.842916	89.134326
27.7000	18.842916	89.914757
27.7100	18.842916	90.754812
27.7200	18.842916	91.649379
27.7300	18.842916	92.543453
27.7400	18.842916	93.360976
27.7500	18.842916	94.050264
27.7600	18.842916	94.620532
27.7700	18.842916	95.147183
27.7800	18.842916	95.739435
27.7900	18.842916	96.484535
27.8000	18.842916	97.396985
27.8100	18.842916	98.400881
27.8200	18.842916	99.357913
27.8300	18.842916	100.130299
27.8400	18.842916	100.648925
27.8500	18.842916	100.952394
27.8600	18.842916	101.175571
27.8700	18.842916	101.490711
27.8800	18.842916	102.028058
27.8900	18.842916	102.813888
27.9000	18.842916	103.756369
27.9100	18.842916	104.686741
27.9200	18.842916	105.436535
27.9300	18.842916	105.914028
27.9400	18.842916	106.143769
27.9500	18.842916	106.251257
27.9600	18.842916	106.401570
27.9700	18.842916	106.722628
27.9800	18.842916	107.249983
27.9900	18.842916	107.918057
28.0000	18.842916	108.599065
28.0100	18.842916	109.167658
28.0200	18.842916	109.558252
28.0300	18.842916	109.787953
28.0400	18.842916	109.937157
28.0500	18.842916	110.101738
28.0600	18.842916	110.343939
28.0700	18.842916	110.667256
28.0800	18.842916	111.025675
28.0900	18.842916	111.358244
28.1000	18.842916	111.626900
28.1100	18.842916	111.835489
28.1200	18.842916	112.020423
28.1300	18.842916	112.220800
28.1400	18.842916	112.448018
28.1500	18.842916	112.674898
28.1600	18.842916	112.852174
28.1700	18.842916	112.943015
28.1800	18.842916	112.954116
28.1900	18.842916	112.942317
28.2000	18.842916	112.989014
28.2100	18.842916	113.153785
28.2200	18.842916	113.432737
28.2300	18.842916	113.747438
28.2400	18.842916	113.975647
28.2500	18.842916	114.012326
28.2600	18.842916	113.830896
28.2700	18.842916	113.510879
28.2800	18.842916	113.212569
28.2900	18.842916	113.105727
28.3000	18.842916	113.284426
28.3100	18.842916	113.710597
28.3200	18.842916	114.218023
28.3300	18.842916	114.580395
28.3400	18.842916	114.615119
28.3500	18.842916	114.274599
28.3600	18.842916	113.679664
28.3700	18.842916	113.075341
28.3800	18.842916	112.725663
28.3900	18.842916	112.793967
28.4000	18.842916	113.264484
28.4100	18.842916	113.943614
28.4200	18.842916	114.541560
28.4300	18.842916	114.798837
28.4400	18.842916	114.600616
28.4500	18.842916	114.027012
28.4600	18.842916	113.316844
28.4700	18.842916	112.761975
28.4800	18.842916	112.580636
28.4900	18.842916	112.826608
28.5000	18.842916	113.373360
28.5100	18.842916	113.977151
28.5200	18.842916	114.387463
28.5300	18.842916	114.453449
28.5400	18.842916	114.179708
28.5500	18.842916	113.710327
28.5600	18.842916	113.253829
28.5700	18.842916	112.987299
28.5800	18.842916	112.984324
28.5900	18.842916	113.196223
28.6000	18.842916	113.488833
28.6100	18.842916	113.715031
28.6200	18.842916	113.782718
28.6300	18.842916	113.687646
28.6400	18.842916	113.500029
28.6500	18.842916	113.316623
28.6600	18.842916	113.205517
28.6700	18.842916	113.171840
28.6800	18.842916	113.159800
28.6900	18.842916	113.087175
28.7000	18.842916	112.892473
28.7100	18.842916	112.569927
28.7200	18.842916	112.174865
28.7300	18.842916	111.797395
28.7400	18.842916	111.517845
28.7500	18.842916	111.365642
28.7600	18.842916	111.301032
28.7700	18.842916	111.227950
28.7800	18.842916	111.032215
28.7900	18.842916	110.628413
28.8000	18.842916	109.995763
28.8100	18.842916	109.188579
28.8200	18.842916	108.317597
28.8300	18.842916	107.509778
28.8400	18.842916	106.861875
28.8500	18.842916	106.404641
28.8600	18.842916	106.090210
28.8700	18.842916	105.806934
28.8800	18.842916	105.416705
28.8900	18.842916	104.802383
28.9000	18.842916	103.909435
28.9100	18.842916	102.767352
28.9200	18.842916	101.482505
28.9300	18.842916	100.203487
28.9400	18.842916	99.069739
28.9500	18.842916	98.161159
28.9600	18.842916	97.467398
28.9700	18.842916	96.889502
28.9800	18.842916	96.274968
28.9900	18.842916	95.474145
29.0000	18.842916	94.396718
29.0100	18.842916	93.045875
29.0200	18.842916	91.516102
29.0300	18.842916	89.955156
29.0400	18.842916	88.505802
29.0500	18.842916	87.251485
29.0600	18.842916	86.188287
29.0700	18.842916	85.233827
29.0800	18.842916	84.267421
29.0900	18.842916	83.182342
29.1000	18.842916	81.926702
29.1100	18.842916	80.516134
29.1200	18.842916	79.015653
29.1300	18.842916	77.502746
29.1400	18.842916	76.031592
29.1500	18.842916	74.615766
29.1600	18.842916	73.235530
29.1700	18.842916	71.862118
29.1800	18.842916	70.482629
29.1900	18.842916	69.109929
29.2000	18.842916	67.771622
29.2100	18.842916	66.485320
29.2200	18.842916	65.236398
29.2300	18.842916	63.974071
29.2400	18.842916	62.631632
29.2500	18.842916	61.162442
29.2600	18.842916	59.572622
29.2700	18.842916	57.930814
29.2800	18.842916	56.345870
29.2900	18.842916	54.920015
29.3000	18.842916	53.699135
29.3100	18.842916	52.645552
29.3200	18.842916	51.649204
29.3300	18.842916	50.574670
29.3400	18.842916	49.323169
29.3500	18.842916	47.879937
29.3600	18.842916	46.323334
29.3700	18.842916	44.790099
29.3800	18.842916	43.412671
29.3900	18.842916	42.258515
29.4000	18.842916	41.300787
29.4100	18.842916	40.434394
29.4200	18.842916	39.529127
29.4300	18.842916	38.493341
29.4400	18.842916	37.316712
29.4500	18.842916	36.071516
29.4600	18.842916	34.872973
29.4700	18.842916	33.819743
29.4800	18.842916	32.945147
29.4900	18.842916	32.203525
29.5000	18.842916	31.497564
29.5100	18.842916	30.731300
29.5200	18.842916	29.860669
29.5300	18.842916	28.915472
29.5400	18.842916	27.982108
29.5500	18.842916	27.157144
29.5600	18.842916	26.496757
29.5700	18.842916	25.988615
29.5800	18.842916	25.560302
29.5900	18.842916	25.118777
29.6000	18.842916	24.599126
29.6100	18.842916	23.996552
29.6200	18.842916	23.365263
29.6300	18.842916	22.786127
29.6400	18.842916	22.321782
29.6500	18.842916	21.984153
29.6600	18.842916	21.731819
29.6700	18.842916	21.497678
29.6800	18.842916	21.230284
29.6900	18.842916	20.924608
29.7000	18.842916	20.624093
29.7100	18.842916	20.392377
29.7200	18.842916	20.270806
29.7300	18.842916	20.246837
29.7400	18.842916	20.253290
29.7500	18.842916	20.201500
29.7600	18.842916	20.031897
29.7700	18.842916	19.754123
29.7800	18.842916	19.452479
29.7900	18.842916	19.249854
29.8000	18.842916	19.245780
29.8100	18.842916	19.459646
29.8200	18.842916	19.809860
29.8300	18.842916	20.143007
29.8400	18.842916	20.301882
29.8500	18.842916	20.200742
29.8600	18.842916	19.871569
29.8700	18.842916	19.454040
29.8800	18.842916	19.133533
29.8900	18.842916	19.056246
29.9000	18.842916	19.260959
29.9100	18.842916	19.660462
29.9200	18.842916	20.081802
29.9300	18.842916	20.346092
29.9400	18.842916	20.349635
29.9500	18.842916	20.108034
29.9600	18.842916	19.743567
29.9700	18.842916	19.423896
29.9800	18.842916	19.283294
29.9900	18.842916	19.364565
30.0000	18.842916	19.607892
30.0100	18.842916	19.888597
30.0200	18.842916	20.081786
30.0300	18.842916	20.120295
30.0400	18.842916	20.018246
30.0500	18.842916	19.852217
30.0600	18.842916	19.714304
30.0700	18.842916	19.663410
30.0800	18.842916	19.701322
30.0900	18.842916	19.783311
30.1000	18.842916	19.853285
30.1100	18.842916	19.880685
30.1200	18.842916	19.876986
30.1300	18.842916	19.883096
30.1400	18.842916	19.936983
30.1500	18.842916	20.043042
30.1600	18.842916	20.163794
30.1700	18.842916	20.240988
30.1800	18.842916	20.234813
30.1900	18.842916	20.157387
30.2000	18.842916	20.077978
30.2100	18.842916	20.092393
30.2200	18.842916	20.269944
30.2300	18.842916	20.606551
30.2400	18.842916	21.012534
30.2500	18.842916	21.347290
30.2600	18.842916	21.488001
30.2700	18.842916	21.399040
30.2800	18.842916	21.164514
30.2900	18.842916	20.962033
30.3000	18.842916	20.984675
30.3100	18.842916	21.345931
30.3200	18.842916	22.014403
30.3300	18.842916	22.813946
30.3400	18.842916	23.494841
30.3500	18.842916	23.846559
30.3600	18.842916	23.800208
30.3700	18.842916	23.470636
30.3800	18.842916	23.114684
30.3900	18.842916	23.021197
30.4000	18.842916	23.381546
30.4100	18.842916	24.200225
30.4200	18.842916	25.287894
30.4300	18.842916	26.341699
30.4400	18.842916	27.077304
30.4500	18.842916	27.353071
30.4600	18.842916	27.230457
30.4700	18.842916	26.944174
30.4800	18.842916	26.797042
30.4900	18.842916	27.028182
30.5000	18.842916	27.713879
30.5100	18.842916	28.743633
30.5200	18.842916	29.878388
30.5300	18.842916	30.860702
30.5400	18.842916	31.525030
30.5500	18.842916	31.859426
30.5600	18.842916	31.995173
30.5700	18.842916	32.135051
30.5800	18.842916	32.457813
30.5900	18.842916	33.044015
30.6000	18.842916	33.854467
30.6100	18.842916	34.765393
30.6200	18.842916	35.637708
30.6300	18.842916	36.384119
30.6400	18.842916	37.002500
30.6500	18.842916	37.563311
30.6600	18.842916	38.162210
30.6700	18.842916	38.865007
30.6800	18.842916	39.673424
30.6900	18.842916	40.527520
30.7000	18.842916	41.341210
30.7100	18.842916	42.051012
30.7200	18.842916	42.652700
30.7300	18.842916	43.207615
30.7400	18.842916	43.815919
30.7500	18.842916	44.569939
30.7600	18.842916	45.509681
30.7700	18.842916	46.600897
30.7800	18.842916	47.745402
30.7900	18.842916	48.818960
30.8000	18.842916	49.720666
30.8100	18.842916	50.413629
30.8200	18.842916	50.941113
30.8300	18.842916	51.412376
30.8400	18.842916	51.963989
30.8500	18.842916	52.710967
30.8600	18.842916	53.705117
30.8700	18.842916	54.915002
30.8800	18.842916	56.234486
30.8900	18.842916	57.517347
30.9000	18.842916	58.626834
30.9100	18.842916	59.483725
30.9200	18.842916	60.096199
30.9300	18.842916	60.560082
30.9400	18.842916	61.027686
30.9500	18.842916	61.654728
30.9600	18.842916	62.543655
30.9700	18.842916	63.704510
30.9800	18.842916	65.049186
30.9900	18.842916	66.422814
31.0000	18.842916	67.661400
31.0100	18.842916	68.653628
31.0200	18.842916	69.382214
31.0300	18.842916	69.927948
31.0400	18.842916	70.434882
31.0500	18.842916	71.051513
31.0600	18.842916	71.872902
31.0700	18.842916	72.907828
31.0800	18.842916	74.083495
31.0900	18.842916	75.283289
31.1000	18.842916	76.398691
31.1100	18.842916	77.371295
31.1200	18.842916	78.207251
31.1300	18.842916	78.960894
31.1400	18.842916	79.699421
31.1500	18.842916	80.468629
31.1600	18.842916	81.277159
31.1700	18.842916	82.105090
31.1800	18.842916	82.928656
31.1900	18.842916	83.744065
31.2000	18.842916	84.574585
31.2100	18.842916	85.455608
31.2200	18.842916	86.406222
31.2300	18.842916	87.405112
31.2400	18.842916	88.387710
31.2500	18.842916	89.270389
31.2600	18.842916	89.991953
31.2700	18.842916	90.551230
31.2800	18.842916	91.019056
31.2900	18.842916	91.514493
31.3000	18.842916	92.153352
31.3100	18.842916	92.992567
31.3200	18.842916	93.998268
31.3300	18.842916	95.055353
31.3400	18.842916	96.016580
31.3500	18.842916	96.769188
31.3600	18.842916	97.287373
31.3700	18.842916	97.644742
31.3800	18.842916	97.979930
31.3900	18.842916	98.431463
31.4000	18.842916	99.073247
31.4100	18.842916	99.881925
31.4200	18.842916	100.751583
31.4300	18.842916	101.547844
31.4400	18.842916	102.173960
31.4500	18.842916	102.615992
31.4600	18.842916	102.945249
31.4700	18.842916	103.278061
31.4800	18.842916	103.714503
31.4900	18.842916	104.287815
31.5000	18.842916	104.949993
31.5100	18.842916	105.599832
